<svg width="1024" height="256" viewBox="0 0 1024 256" fill="none" xmlns="http://www.w3.org/2000/svg">
<rect width="1024" height="256" fill="white"/>
<path d="M216.776 197.04V103.6H228.296V117.04H230.6L228.296 119.728C228.296 114.352 230.045 110.128 233.544 107.056C237.128 103.899 241.821 102.32 247.624 102.32C254.707 102.32 260.339 104.667 264.52 109.36C268.787 113.968 270.92 120.325 270.92 128.432V149.04C270.92 154.416 269.939 159.067 267.976 162.992C266.099 166.917 263.411 169.947 259.912 172.08C256.499 174.213 252.403 175.28 247.624 175.28C241.907 175.28 237.256 173.701 233.672 170.544C230.088 167.387 228.296 163.163 228.296 157.872L230.6 160.56H228.04L228.296 176.56V197.04H216.776ZM243.784 165.296C248.648 165.296 252.445 163.845 255.176 160.944C257.992 158.043 259.4 153.861 259.4 148.4V129.2C259.4 123.739 257.992 119.557 255.176 116.656C252.445 113.755 248.648 112.304 243.784 112.304C239.091 112.304 235.336 113.797 232.52 116.784C229.704 119.771 228.296 123.909 228.296 129.2V148.4C228.296 153.691 229.704 157.829 232.52 160.816C235.336 163.803 239.091 165.296 243.784 165.296ZM320.15 175.024C314.518 175.024 309.654 173.957 305.558 171.824C301.462 169.691 298.262 166.619 295.958 162.608C293.739 158.512 292.63 153.691 292.63 148.144V129.456C292.63 123.824 293.739 119.003 295.958 114.992C298.262 110.981 301.462 107.909 305.558 105.776C309.654 103.643 314.518 102.576 320.15 102.576C325.782 102.576 330.646 103.643 334.742 105.776C338.838 107.909 341.995 110.981 344.214 114.992C346.518 119.003 347.67 123.781 347.67 129.328V148.144C347.67 153.691 346.518 158.512 344.214 162.608C341.995 166.619 338.838 169.691 334.742 171.824C330.646 173.957 325.782 175.024 320.15 175.024ZM320.15 164.784C325.185 164.784 329.11 163.376 331.926 160.56C334.742 157.744 336.15 153.605 336.15 148.144V129.456C336.15 123.995 334.742 119.856 331.926 117.04C329.11 114.224 325.185 112.816 320.15 112.816C315.201 112.816 311.275 114.224 308.374 117.04C305.558 119.856 304.15 123.995 304.15 129.456V148.144C304.15 153.605 305.558 157.744 308.374 160.56C311.275 163.376 315.201 164.784 320.15 164.784ZM370.66 174V80.56H382.18V132.656H395.748L416.228 103.6H429.412L405.732 137.136L429.796 174H416.356L395.876 142.64H382.18V174H370.66ZM473.65 175.28C468.103 175.28 463.239 174.171 459.058 171.952C454.962 169.733 451.762 166.619 449.458 162.608C447.239 158.512 446.13 153.776 446.13 148.4V129.2C446.13 123.739 447.239 119.003 449.458 114.992C451.762 110.981 454.962 107.867 459.058 105.648C463.239 103.429 468.103 102.32 473.65 102.32C479.197 102.32 484.018 103.429 488.114 105.648C492.295 107.867 495.495 110.981 497.714 114.992C500.018 119.003 501.17 123.739 501.17 129.2V141.616H457.394V148.4C457.394 153.947 458.802 158.213 461.618 161.2C464.434 164.101 468.445 165.552 473.65 165.552C478.087 165.552 481.671 164.784 484.402 163.248C487.133 161.627 488.797 159.237 489.394 156.08H500.914C500.146 161.968 497.245 166.661 492.21 170.16C487.261 173.573 481.074 175.28 473.65 175.28ZM489.906 133.936V129.2C489.906 123.653 488.498 119.387 485.682 116.4C482.951 113.413 478.941 111.92 473.65 111.92C468.445 111.92 464.434 113.413 461.618 116.4C458.802 119.387 457.394 123.653 457.394 129.2V132.912H490.802L489.906 133.936ZM526.208 174V103.6H537.472V117.04H540.16L536.448 125.36C536.448 117.765 538.069 112.048 541.312 108.208C544.64 104.283 549.547 102.32 556.032 102.32C563.456 102.32 569.344 104.667 573.696 109.36C578.133 113.968 580.352 120.24 580.352 128.176V132.4H568.832V129.2C568.832 123.653 567.467 119.429 564.736 116.528C562.091 113.541 558.293 112.048 553.344 112.048C548.48 112.048 544.64 113.541 541.824 116.528C539.093 119.515 537.728 123.739 537.728 129.2V174H526.208ZM627.15 175.024C621.518 175.024 616.654 173.957 612.558 171.824C608.462 169.691 605.262 166.619 602.958 162.608C600.739 158.512 599.63 153.691 599.63 148.144V129.456C599.63 123.824 600.739 119.003 602.958 114.992C605.262 110.981 608.462 107.909 612.558 105.776C616.654 103.643 621.518 102.576 627.15 102.576C632.782 102.576 637.646 103.643 641.742 105.776C645.838 107.909 648.995 110.981 651.214 114.992C653.518 119.003 654.67 123.781 654.67 129.328V148.144C654.67 153.691 653.518 158.512 651.214 162.608C648.995 166.619 645.838 169.691 641.742 171.824C637.646 173.957 632.782 175.024 627.15 175.024ZM627.15 164.784C632.185 164.784 636.11 163.376 638.926 160.56C641.742 157.744 643.15 153.605 643.15 148.144V129.456C643.15 123.995 641.742 119.856 638.926 117.04C636.11 114.224 632.185 112.816 627.15 112.816C622.201 112.816 618.275 114.224 615.374 117.04C612.558 119.856 611.15 123.995 611.15 129.456V148.144C611.15 153.605 612.558 157.744 615.374 160.56C618.275 163.376 622.201 164.784 627.15 164.784ZM703.9 175.024C698.268 175.024 693.404 173.957 689.308 171.824C685.212 169.691 682.012 166.619 679.708 162.608C677.489 158.512 676.38 153.691 676.38 148.144V129.456C676.38 123.824 677.489 119.003 679.708 114.992C682.012 110.981 685.212 107.909 689.308 105.776C693.404 103.643 698.268 102.576 703.9 102.576C709.532 102.576 714.396 103.643 718.492 105.776C722.588 107.909 725.745 110.981 727.964 114.992C730.268 119.003 731.42 123.781 731.42 129.328V148.144C731.42 153.691 730.268 158.512 727.964 162.608C725.745 166.619 722.588 169.691 718.492 171.824C714.396 173.957 709.532 175.024 703.9 175.024ZM703.9 164.784C708.935 164.784 712.86 163.376 715.676 160.56C718.492 157.744 719.9 153.605 719.9 148.144V129.456C719.9 123.995 718.492 119.856 715.676 117.04C712.86 114.224 708.935 112.816 703.9 112.816C698.951 112.816 695.025 114.224 692.124 117.04C689.308 119.856 687.9 123.995 687.9 129.456V148.144C687.9 153.605 689.308 157.744 692.124 160.56C695.025 163.376 698.951 164.784 703.9 164.784ZM750.698 174V103.6H760.81V112.048H763.114L761.322 115.12C761.322 111.195 762.346 108.08 764.394 105.776C766.527 103.472 769.386 102.32 772.97 102.32C776.895 102.32 779.925 103.771 782.058 106.672C784.191 109.573 785.258 113.669 785.258 118.96L781.802 112.048H787.178L784.746 115.12C784.746 111.195 785.813 108.08 787.946 105.776C790.165 103.472 793.066 102.32 796.65 102.32C801.087 102.32 804.501 103.984 806.89 107.312C809.365 110.64 810.602 115.035 810.602 120.496V174H799.978V120.368C799.978 117.467 799.338 115.205 798.058 113.584C796.863 111.963 795.071 111.152 792.682 111.152C790.378 111.152 788.543 111.963 787.178 113.584C785.898 115.12 785.258 117.339 785.258 120.24V174H776.042V120.368C776.042 117.381 775.359 115.12 773.994 113.584C772.714 111.963 770.879 111.152 768.49 111.152C766.101 111.152 764.309 111.963 763.114 113.584C761.919 115.12 761.322 117.339 761.322 120.24V174H750.698Z" fill="black"/>
<g filter="url(#filter0_d_275_58)">
<rect x="652" y="73.5523" width="70" height="121" rx="10" transform="rotate(-11.9987 652 73.5523)" fill="white" stroke="black" stroke-width="2"/>
<path d="M681.888 143.875L681.206 140.667L688.953 139.02L684.188 116.601L677.672 124.038L676.841 120.126L682.274 113.941L687.086 112.918L692.475 138.272L698.813 136.925L699.495 140.133L681.888 143.875ZM713.218 137.626C711.496 137.992 709.911 137.974 708.463 137.573C707.035 137.14 705.839 136.386 704.874 135.31C703.909 134.233 703.252 132.874 702.903 131.23L706.424 130.482C706.762 132.073 707.472 133.231 708.553 133.955C709.654 134.648 711.001 134.825 712.592 134.487C714.209 134.144 715.361 133.408 716.048 132.28C716.736 131.153 716.919 129.833 716.597 128.32L716.165 126.285C715.821 124.668 715.111 123.51 714.036 122.812C712.961 122.114 711.614 121.936 709.997 122.28L707.063 122.904L706.314 119.382L711.933 110.991L700.351 113.452L699.669 110.244L714.811 107.026L715.56 110.547L709.502 119.564L709.41 119.133C712.019 118.579 714.25 118.881 716.105 120.041C717.96 121.201 719.154 123.033 719.686 125.537L720.118 127.571C720.468 129.215 720.407 130.727 719.938 132.108C719.494 133.484 718.695 134.662 717.54 135.644C716.38 136.599 714.939 137.26 713.218 137.626Z" fill="black"/>
</g>
<g filter="url(#filter1_d_275_58)">
<rect x="295.414" y="83" width="70" height="121" rx="10" transform="rotate(11.1572 295.414 83)" fill="white" stroke="black" stroke-width="2"/>
<path d="M315.17 163.749C313.417 163.403 311.946 162.801 310.756 161.941C309.598 161.06 308.779 159.974 308.3 158.684C307.821 157.393 307.733 155.976 308.038 154.433C308.373 152.732 309.12 151.357 310.278 150.308C311.463 149.265 313.157 148.457 315.363 147.887L319.533 146.793C320.793 146.47 321.824 145.926 322.628 145.161C323.431 144.395 323.938 143.476 324.15 142.403C324.398 141.147 324.175 140.071 323.482 139.173C322.816 138.28 321.776 137.695 320.363 137.416C318.951 137.138 317.751 137.295 316.764 137.889C315.808 138.461 315.207 139.375 314.959 140.631C314.753 141.678 314.863 142.705 315.289 143.713C315.741 144.727 316.452 145.601 317.422 146.336L320.873 148.892C322.775 150.272 324.073 151.684 324.767 153.125C325.466 154.541 325.646 156.112 325.305 157.838C324.846 160.167 323.695 161.87 321.851 162.947C320.039 164.003 317.812 164.27 315.17 163.749ZM315.789 160.609C317.385 160.924 318.721 160.766 319.796 160.136C320.903 159.485 321.594 158.465 321.867 157.079C322.089 155.954 321.989 154.874 321.568 153.84C321.147 152.805 320.428 151.903 319.412 151.131L316.008 148.544C314.116 147.111 312.815 145.713 312.106 144.349C311.396 142.986 311.204 141.481 311.529 139.832C311.818 138.367 312.395 137.163 313.261 136.219C314.126 135.276 315.218 134.635 316.535 134.296C317.852 133.958 319.334 133.952 320.983 134.277C322.631 134.602 324 135.171 325.09 135.984C326.18 136.797 326.946 137.804 327.389 139.006C327.831 140.207 327.908 141.541 327.619 143.006C327.294 144.654 326.544 145.974 325.37 146.966C324.201 147.931 322.425 148.736 320.042 149.38L315.911 150.482C314.735 150.793 313.756 151.348 312.974 152.145C312.223 152.921 311.739 153.858 311.522 154.957C311.243 156.37 311.479 157.585 312.23 158.603C313.007 159.626 314.193 160.295 315.789 160.609Z" fill="black"/>
</g>
<path d="M670.043 189C669.043 189.5 685.544 180 685.544 180C685.544 180 681.544 196.088 681.044 196.794C680.544 197.5 681.044 194.5 677.044 191.5C673.044 188.5 671.043 188.5 670.043 189Z" fill="#C4A4FF" stroke="black"/>
<rect x="566.5" y="192.5" width="111" height="18" rx="9" fill="#C4A4FF" stroke="black"/>
<path d="M605.502 205.11C604.805 205.11 604.248 204.905 603.83 204.494C603.412 204.076 603.203 203.511 603.203 202.8V198.95H604.193V202.8C604.193 203.255 604.31 203.61 604.545 203.867C604.78 204.116 605.099 204.241 605.502 204.241C605.913 204.241 606.235 204.116 606.47 203.867C606.712 203.61 606.833 203.255 606.833 202.8V198.95H607.823V202.8C607.823 203.511 607.61 204.076 607.185 204.494C606.76 204.905 606.199 205.11 605.502 205.11ZM611.922 205.088C611.511 205.088 611.152 205.026 610.844 204.901C610.543 204.769 610.301 204.586 610.118 204.351C609.942 204.116 609.835 203.838 609.799 203.515H610.789C610.833 203.728 610.95 203.896 611.141 204.021C611.339 204.146 611.599 204.208 611.922 204.208H612.384C612.772 204.208 613.062 204.131 613.253 203.977C613.443 203.816 613.539 203.603 613.539 203.339C613.539 203.082 613.451 202.881 613.275 202.734C613.106 202.58 612.853 202.477 612.516 202.426L611.702 202.294C611.108 202.191 610.664 202.008 610.371 201.744C610.085 201.473 609.942 201.08 609.942 200.567C609.942 200.024 610.114 199.606 610.459 199.313C610.803 199.012 611.32 198.862 612.01 198.862H612.428C613.007 198.862 613.473 198.998 613.825 199.269C614.177 199.54 614.389 199.907 614.463 200.369H613.473C613.429 200.178 613.319 200.028 613.143 199.918C612.967 199.801 612.728 199.742 612.428 199.742H612.01C611.636 199.742 611.361 199.812 611.185 199.951C611.016 200.09 610.932 200.299 610.932 200.578C610.932 200.827 611.005 201.011 611.152 201.128C611.298 201.245 611.529 201.33 611.845 201.381L612.659 201.513C613.311 201.616 613.784 201.806 614.078 202.085C614.378 202.364 614.529 202.767 614.529 203.295C614.529 203.852 614.349 204.292 613.99 204.615C613.638 204.93 613.102 205.088 612.384 205.088H611.922ZM618.704 205.11C618.228 205.11 617.81 205.015 617.45 204.824C617.098 204.633 616.823 204.366 616.625 204.021C616.435 203.669 616.339 203.262 616.339 202.8V201.15C616.339 200.681 616.435 200.274 616.625 199.929C616.823 199.584 617.098 199.317 617.45 199.126C617.81 198.935 618.228 198.84 618.704 198.84C619.181 198.84 619.595 198.935 619.947 199.126C620.307 199.317 620.582 199.584 620.772 199.929C620.97 200.274 621.069 200.681 621.069 201.15V202.217H617.307V202.8C617.307 203.277 617.428 203.643 617.67 203.9C617.912 204.149 618.257 204.274 618.704 204.274C619.086 204.274 619.394 204.208 619.628 204.076C619.863 203.937 620.006 203.731 620.057 203.46H621.047C620.981 203.966 620.732 204.369 620.299 204.67C619.874 204.963 619.342 205.11 618.704 205.11ZM620.101 201.557V201.15C620.101 200.673 619.98 200.307 619.738 200.05C619.504 199.793 619.159 199.665 618.704 199.665C618.257 199.665 617.912 199.793 617.67 200.05C617.428 200.307 617.307 200.673 617.307 201.15V201.469H620.178L620.101 201.557ZM623.221 205V198.95H624.189V200.105H624.42L624.101 200.82C624.101 200.167 624.24 199.676 624.519 199.346C624.805 199.009 625.227 198.84 625.784 198.84C626.422 198.84 626.928 199.042 627.302 199.445C627.683 199.841 627.874 200.38 627.874 201.062V201.425H626.884V201.15C626.884 200.673 626.767 200.31 626.532 200.061C626.305 199.804 625.978 199.676 625.553 199.676C625.135 199.676 624.805 199.804 624.563 200.061C624.328 200.318 624.211 200.681 624.211 201.15V205H623.221ZM629.509 205L629.916 202.8H628.981V202.085H630.048L630.444 199.885H629.366V199.17H630.576L630.983 196.97H631.753L631.346 199.17H633.106L633.513 196.97H634.283L633.876 199.17H634.811V199.885H633.744L633.348 202.085H634.426V202.8H633.216L632.809 205H632.039L632.446 202.8H630.686L630.279 205H629.509ZM630.818 202.085H632.578L632.974 199.885H631.214L630.818 202.085ZM638.491 205.11C638 205.11 637.571 205.015 637.204 204.824C636.845 204.626 636.566 204.351 636.368 203.999C636.17 203.64 636.071 203.222 636.071 202.745V199.225C636.071 198.741 636.17 198.323 636.368 197.971C636.566 197.619 636.845 197.348 637.204 197.157C637.571 196.959 638 196.86 638.491 196.86C638.99 196.86 639.419 196.959 639.778 197.157C640.138 197.348 640.416 197.619 640.614 197.971C640.812 198.323 640.911 198.741 640.911 199.225V202.745C640.911 203.222 640.812 203.64 640.614 203.999C640.416 204.351 640.134 204.626 639.767 204.824C639.408 205.015 638.983 205.11 638.491 205.11ZM638.491 204.263C638.931 204.263 639.283 204.124 639.547 203.845C639.819 203.559 639.954 203.192 639.954 202.745V199.225C639.954 198.778 639.819 198.415 639.547 198.136C639.283 197.85 638.931 197.707 638.491 197.707C638.051 197.707 637.696 197.85 637.424 198.136C637.16 198.415 637.028 198.778 637.028 199.225V202.745C637.028 203.192 637.16 203.559 637.424 203.845C637.696 204.124 638.051 204.263 638.491 204.263ZM638.491 201.634C638.293 201.634 638.132 201.572 638.007 201.447C637.89 201.322 637.831 201.157 637.831 200.952C637.831 200.754 637.89 200.596 638.007 200.479C638.132 200.354 638.293 200.292 638.491 200.292C638.689 200.292 638.847 200.354 638.964 200.479C639.089 200.596 639.151 200.754 639.151 200.952C639.151 201.157 639.089 201.322 638.964 201.447C638.847 201.572 638.689 201.634 638.491 201.634Z" fill="black"/>
<defs>
<filter id="filter0_d_275_58" x="648.858" y="59.8582" width="99.9087" height="139.192" filterUnits="userSpaceOnUse" color-interpolation-filters="sRGB">
<feFlood flood-opacity="0" result="BackgroundImageFix"/>
<feColorMatrix in="SourceAlpha" type="matrix" values="0 0 0 0 0 0 0 0 0 0 0 0 0 0 0 0 0 0 127 0" result="hardAlpha"/>
<feOffset dy="4"/>
<feGaussianBlur stdDeviation="2"/>
<feComposite in2="hardAlpha" operator="out"/>
<feColorMatrix type="matrix" values="0 0 0 0 0.768627 0 0 0 0 0.643137 0 0 0 0 1 0 0 0 1 0"/>
<feBlend mode="normal" in2="BackgroundImageFix" result="effect1_dropShadow_275_58"/>
<feBlend mode="normal" in="SourceGraphic" in2="effect1_dropShadow_275_58" result="shape"/>
</filter>
<filter id="filter1_d_275_58" x="270.744" y="83.7439" width="94.603" height="134.77" filterUnits="userSpaceOnUse" color-interpolation-filters="sRGB">
<feFlood flood-opacity="0" result="BackgroundImageFix"/>
<feColorMatrix in="SourceAlpha" type="matrix" values="0 0 0 0 0 0 0 0 0 0 0 0 0 0 0 0 0 0 127 0" result="hardAlpha"/>
<feOffset dy="2"/>
<feGaussianBlur stdDeviation="1"/>
<feComposite in2="hardAlpha" operator="out"/>
<feColorMatrix type="matrix" values="0 0 0 0 0 0 0 0 0 0 0 0 0 0 0 0 0 0 0.25 0"/>
<feBlend mode="normal" in2="BackgroundImageFix" result="effect1_dropShadow_275_58"/>
<feBlend mode="normal" in="SourceGraphic" in2="effect1_dropShadow_275_58" result="shape"/>
</filter>
</defs>
</svg>
